<svg xmlns="http://www.w3.org/2000/svg" xmlns:svg="http://www.w3.org/2000/svg" id="svg2" width="128" height="128" version="1.0"><defs id="defs4"><style id="current-color-scheme" type="text/css">.ColorScheme-Text{color:#31363b;stop-color:#31363b}.ColorScheme-Background{color:#eff0f1;stop-color:#eff0f1}.ColorScheme-Highlight{color:#3daee9;stop-color:#3daee9}.ColorScheme-ButtonText{color:#31363b;stop-color:#31363b}.ColorScheme-ButtonBackground{color:#eff0f1;stop-color:#eff0f1}.ColorScheme-ButtonHover{color:#93cee9;stop-color:#93cee9}.ColorScheme-ButtonFocus{color:#3daee9;stop-color:#3daee9}</style><style id="style7" type="text/css">.ColorScheme-Danger{color:#e00}</style></defs><metadata id="metadata7"/><g id="layer1"><path id="groove-top" fill="currentColor" d="m 10,9 0,1 3,0 0,-1 -3,0 z" class="ColorScheme-Text" opacity=".3"/><path id="groove-topleft" fill="currentColor" d="M 9,9 C 8.43928,9 8,9.43928 8,10 l 1,0 z" class="ColorScheme-Text" opacity=".3"/><rect id="hint-tile-center" width="2.033" height="2.077" x="2.26" y="4.659" fill="#4e9a06" fill-opacity="1" fill-rule="nonzero" stroke="none" rx="0" ry="2.077"/><path id="groove-topright" fill="currentColor" d="M 15,10 C 15,9.43928 14.56072,9 14,9 l 0,1 z" class="ColorScheme-Text" opacity=".3"/><path id="groove-bottom" fill="currentColor" d="m 10,16 0,-1 3,0 0,1 -3,0 z" class="ColorScheme-Text" opacity=".3"/><path id="groove-bottomleft" fill="currentColor" d="M 9,16 C 8.43928,16 8,15.56072 8,15 l 1,0 z" class="ColorScheme-Text" opacity=".3"/><path id="groove-bottomright" fill="currentColor" d="m 15,15 c 0,0.56072 -0.43928,1 -1,1 l 0,-1 z" class="ColorScheme-Text" opacity=".3"/><path id="groove-center" fill="currentColor" d="m 10,11 0,3 3,0 0,-3 -3,0 z" class="ColorScheme-Text" opacity=".3"/><path id="groove-left" fill="currentColor" d="m 8,11 0,3 1,0 0,-3 -1,0 z" class="ColorScheme-Text" opacity=".3"/><path id="groove-right" fill="currentColor" d="m 14,11 0,3 1,0 0,-3 -1,0 z" class="ColorScheme-Text" opacity=".3"/><path id="groove-highlight-top" fill="currentColor" fill-opacity="1" d="m 28,9 0,1 3,0 0,-1 -3,0 z" class="ColorScheme-Highlight"/><path id="groove-highlight-topleft" fill="currentColor" fill-opacity="1" d="m 27,9 c -0.56072,0 -1,0.43928 -1,1 l 1,0 z" class="ColorScheme-Highlight"/><path id="groove-highlight-topright" fill="currentColor" fill-opacity="1" d="M 33,10 C 33,9.43928 32.56072,9 32,9 l 0,1 z" class="ColorScheme-Highlight"/><path id="groove-highlight-bottom" fill="currentColor" fill-opacity="1" d="m 28,16 0,-1 3,0 0,1 -3,0 z" class="ColorScheme-Highlight"/><path id="groove-highlight-bottomleft" fill="currentColor" fill-opacity="1" d="m 27,16 c -0.56072,0 -1,-0.43928 -1,-1 l 1,0 z" class="ColorScheme-Highlight"/><path id="groove-highlight-bottomright" fill="currentColor" fill-opacity="1" d="m 33,15 c 0,0.56072 -0.43928,1 -1,1 l 0,-1 z" class="ColorScheme-Highlight"/><path id="groove-highlight-center" fill="currentColor" fill-opacity="1" d="m 28,11 0,3 3,0 0,-3 -3,0 z" class="ColorScheme-Highlight"/><path id="groove-highlight-left" fill="currentColor" fill-opacity="1" d="m 26,11 0,3 1,0 0,-3 -1,0 z" class="ColorScheme-Highlight"/><path id="groove-highlight-right" fill="currentColor" fill-opacity="1" d="m 32,11 0,3 1,0 0,-3 -1,0 z" class="ColorScheme-Highlight"/><g id="horizontal-slider-hover" transform="translate(24,2)"><rect id="rect3075" width="24" height="24" x="14" y="96" fill="#000" fill-opacity=".004" stroke="none" opacity=".001"/><path id="path3077" fill="currentColor" d="m 26,98.000001 c -5.522847,0 -10,4.477149 -10,9.999999 0,5.52285 4.477153,10 10,10 5.522847,0 10,-4.47715 10,-10 0,-5.52285 -4.477153,-9.999999 -10,-9.999999 z m 0,1 c 4.970563,0 9,4.029439 9,8.999999 0,4.97056 -4.029437,9 -9,9 -4.970563,0 -9,-4.02944 -9,-9 0,-4.97056 4.029437,-8.999999 9,-8.999999 z" class="ColorScheme-ButtonHover"/><path id="path3088" fill="currentColor" d="m 26,97 c -6.075132,0 -11,4.92487 -11,11 0,6.07513 4.924868,11 11,11 6.075132,0 11,-4.92487 11,-11 0,-6.07513 -4.924868,-11 -11,-11 z m 0,1 c 5.522847,0 10,4.47715 10,10 0,5.52285 -4.477153,10 -10,10 -5.522847,0 -10,-4.47715 -10,-10 0,-5.52285 4.477153,-10 10,-10 z" class="ColorScheme-ButtonHover" opacity=".3"/></g><g id="horizontal-slider-focus" transform="translate(52,2)"><rect id="rect3104" width="24" height="24" x="14" y="96" fill="#000" fill-opacity=".004" stroke="none" opacity=".001"/><path id="path3106" fill="currentColor" d="m 26,98.000001 c -5.522847,0 -10,4.477149 -10,9.999999 0,5.52285 4.477153,10 10,10 5.522847,0 10,-4.47715 10,-10 0,-5.52285 -4.477153,-9.999999 -10,-9.999999 z m 0,1 c 4.970563,0 9,4.029439 9,8.999999 0,4.97056 -4.029437,9 -9,9 -4.970563,0 -9,-4.02944 -9,-9 0,-4.97056 4.029437,-8.999999 9,-8.999999 z" class="ColorScheme-ButtonFocus"/><path id="path3108" fill="currentColor" d="m 26,97 c -6.075132,0 -11,4.92487 -11,11 0,6.07513 4.924868,11 11,11 6.075132,0 11,-4.92487 11,-11 0,-6.07513 -4.924868,-11 -11,-11 z m 0,1 c 5.522847,0 10,4.47715 10,10 0,5.52285 -4.477153,10 -10,10 -5.522847,0 -10,-4.47715 -10,-10 0,-5.52285 4.477153,-10 10,-10 z" class="ColorScheme-ButtonFocus" opacity=".3"/></g><g id="horizontal-slider-handle" transform="matrix(1.2,0,0,1.2,-2.2,63.2)"><rect id="rect3785-4" width="24" height="24" x="14" y="42" fill="#000" fill-opacity=".004" stroke="none" opacity=".001" transform="matrix(0.83333333,0,0,0.83333333,-5.6666667,-6)"/><path id="path3921-2" fill="currentColor" d="m 18,40 a 4,4 0 0 1 -4,4 4,4 0 0 1 -4,-4 4,4 0 0 1 4,-4 4,4 0 0 1 4,4 z" class="ColorScheme-ButtonText" opacity=".5" transform="matrix(2.0833333,0,0,2.0833333,-13.166666,-44.333332)"/><circle id="path3923-4" cx="14" cy="40" r="4" fill="currentColor" class="ColorScheme-ButtonBackground" transform="matrix(1.875,0,0,1.875,-10.25,-36)"/></g><g id="vertical-slider-handle" transform="translate(0,42)"><rect id="rect58" width="24" height="24" x="0" y="20" fill="#000" opacity="0"/><path id="path60" fill="currentColor" d="M 18,25 18,38.31579 12,44 6,38.31579 6,25 Z" class="ColorScheme-ButtonText" opacity=".5"/><path id="path62" fill="currentColor" d="M 17,26 17,37.917895 12,42.5 7,37.917895 7,26 Z" class="ColorScheme-ButtonBackground"/></g><g id="vertical-slider-hover" transform="translate(24,42)"><rect id="rect54" width="24" height="24" x="0" y="20" fill="#000" opacity="0"/><path id="path56" fill="currentColor" d="M 18,25 18,38.31579 12,44 6,38.31579 6,25 Z" class="ColorScheme-ButtonHover" opacity=".5"/><path id="path58" fill="currentColor" d="M 17,26 17,37.917895 12,42.5 7,37.917895 7,26 Z" class="ColorScheme-ButtonBackground"/></g><g id="vertical-slider-focus" transform="translate(48,42)"><rect id="rect61" width="24" height="24" x="0" y="20" fill="#000" opacity="0"/><path id="path63" fill="currentColor" d="M 18,25 18,38.31579 12,44 6,38.31579 6,25 Z" class="ColorScheme-ButtonFocus" opacity=".5"/><path id="path65" fill="currentColor" d="M 17,26 17,37.917895 12,42.5 7,37.917895 7,26 Z" class="ColorScheme-ButtonBackground"/></g><g id="vertical-slider-shadow" transform="translate(72,42)"><rect id="rect68" width="24" height="24" x="0" y="20" fill="#000" opacity="0"/><path id="path70" d="M 78,67 78,80.316406 84,86 90,80.316406 90,67 Z m 1,1 10,0 0,11.917969 L 84,84.5 79,79.918 Z" color="#3daee9" opacity=".05" transform="translate(-72,-42)"/><path id="path65-7" d="M 89 68 L 89 79.917969 L 84 84.5 L 84.769531 85.269531 L 90 80.316406 L 90 69 L 89 68 z" color="#3daee9" opacity=".15" transform="translate(-72,-42)"/></g><g id="horizontal-slider-shadow2" transform="translate(10,0)"><rect id="rect3114" width="24" height="24" x="96" y="98" fill="#000" fill-opacity=".004" stroke="none" opacity=".001"/><path id="path3118" fill="#000" fill-opacity="1" d="m 108,99 c -6.07513,0 -11,4.92487 -11,11 0,6.07513 4.92487,11 11,11 6.07513,0 11,-4.92487 11,-11 0,-6.07513 -4.92487,-11 -11,-11 z m 0,1 c 5.52285,0 10,4.47715 10,10 0,5.52285 -4.47715,10 -10,10 -5.52285,0 -10,-4.47715 -10,-10 0,-5.52285 4.47715,-10 10,-10 z" color="#3daee9" opacity=".05"/><path id="path3037" fill="#000" fill-opacity="1" d="M 115.71875,103.625 C 117.14531,105.35359 118,107.58375 118,110 c 0,2.76963 -1.14961,5.2516 -2.96875,7.0625 C 113.2229,118.86267 110.75322,120 108,120 c -2.76143,0 -5.25285,-1.12786 -7.0625,-2.9375 1.83415,2.22247 4.61215,3.625 7.71875,3.625 5.52285,0 10,-4.47715 10,-10 0,-2.76143 -1.12786,-5.25286 -2.9375,-7.0625 z" color="#3daee9" opacity=".15"/></g><g id="groove-triangle" transform="matrix(0.6,0,0,1.6666667,1,-2.3333338)"><path id="path61" fill="currentColor" d="m 15,11 5,3 0,-3 z" class="ColorScheme-Background" opacity=".5"/></g><g id="groove-highlight-triangle" transform="matrix(0.6,0,0,1.6666667,19,-2.3333338)"><path id="path61-6" fill="currentColor" d="m 15,11 5,3 0,-3 z" class="ColorScheme-Highlight" opacity=".5"/></g><g id="groove-danger-triangle" transform="matrix(0.6,0,0,1.6666667,35,-2.3333338)"><path id="path61-6-6" fill="currentColor" d="m 15,11 5,3 0,-3 z" class="ColorScheme-Danger" opacity=".5"/></g><path id="groove-danger-top" fill="currentColor" fill-opacity="1" d="M 44,8.9999998 44,10 l 3,0 0,-1.0000002 -3,0 z" class="ColorScheme-Danger"/><path id="groove-danger-topleft" fill="currentColor" fill-opacity="1" d="m 43,8.9999998 c -0.56072,0 -1,0.43928 -1,1.0000002 l 1,0 z" class="ColorScheme-Danger"/><path id="groove-danger-topright" fill="currentColor" fill-opacity="1" d="M 49,10 C 49,9.4392798 48.56072,8.9999998 48,8.9999998 L 48,10 Z" class="ColorScheme-Danger"/><path id="groove-danger-bottom" fill="currentColor" fill-opacity="1" d="m 44,16 0,-1 3,0 0,1 -3,0 z" class="ColorScheme-Danger"/><path id="groove-danger-bottomleft" fill="currentColor" fill-opacity="1" d="m 43,16 c -0.56072,0 -1,-0.43928 -1,-1 l 1,0 z" class="ColorScheme-Danger"/><path id="groove-danger-bottomright" fill="currentColor" fill-opacity="1" d="m 49,15 c 0,0.56072 -0.43928,1 -1,1 l 0,-1 z" class="ColorScheme-Danger"/><path id="groove-danger-center" fill="currentColor" fill-opacity="1" d="m 44,11 0,3 3,0 0,-3 -3,0 z" class="ColorScheme-Danger"/><path id="groove-danger-left" fill="currentColor" fill-opacity="1" d="m 42,11 0,3 1,0 0,-3 -1,0 z" class="ColorScheme-Danger"/><path id="groove-danger-right" fill="currentColor" fill-opacity="1" d="m 48,11 0,3 1,0 0,-3 -1,0 z" class="ColorScheme-Danger"/><path id="groove-peaking-top" fill="currentColor" fill-opacity=".3" d="m 19.023615,9.0818306 0,1.0000004 3,0 0,-1.0000004 -3,0 z" class="ColorScheme-Text"/><path id="groove-peaking-topleft" fill="currentColor" fill-opacity=".3" d="m 18.023615,9.0818306 c -0.56072,0 -1,0.43928 -1,1.0000004 l 1,0 z" class="ColorScheme-Text"/><path id="groove-peaking-topright" fill="currentColor" fill-opacity=".3" d="m 24.023615,10.081831 c 0,-0.5607204 -0.43928,-1.0000004 -1,-1.0000004 l 0,1.0000004 z" class="ColorScheme-Text"/><path id="groove-peaking-bottom" fill="currentColor" fill-opacity=".3" d="m 19.023615,16.081831 0,-1 3,0 0,1 -3,0 z" class="ColorScheme-Text"/><path id="groove-peaking-bottomleft" fill="currentColor" fill-opacity=".3" d="m 18.023615,16.081831 c -0.56072,0 -1,-0.43928 -1,-1 l 1,0 z" class="ColorScheme-Text"/><path id="groove-peaking-bottomright" fill="currentColor" fill-opacity=".3" d="m 24.023615,15.081831 c 0,0.56072 -0.43928,1 -1,1 l 0,-1 z" class="ColorScheme-Text"/><path id="groove-peaking-center" fill="currentColor" fill-opacity=".3" d="m 19.023615,11.081831 0,3 3,0 0,-3 -3,0 z" class="ColorScheme-Text"/><path id="groove-peaking-left" fill="currentColor" fill-opacity=".3" d="m 17.023615,11.081831 0,3 1,0 0,-3 -1,0 z" class="ColorScheme-Text"/><path id="groove-peaking-right" fill="currentColor" fill-opacity=".3" d="m 23.023615,11.081831 0,3 1,0 0,-3 -1,0 z" class="ColorScheme-Text"/><g id="groove-peaking-triangle" transform="matrix(0.6,0,0,1.6666667,10.023615,-2.2515034)"><path id="path61-6-8" fill="currentColor" d="m 15,11 5,3 0,-3 z" class="ColorScheme-Text" opacity=".3"/></g></g></svg>